<svg width="300" height="180" viewBox="0 0 300 180" xmlns="http://www.w3.org/2000/svg">
  <defs>
    <linearGradient id="cardGrad" x1="0%" y1="0%" x2="100%" y2="100%">
      <stop offset="0%" style="stop-color:#171717;stop-opacity:1" />
      <stop offset="100%" style="stop-color:#2a2a2a;stop-opacity:1" />
    </linearGradient>
  </defs>
  
  <rect x="0" y="0" width="300" height="180" rx="15" ry="15" fill="url(#cardGrad)" stroke="#333" stroke-width="1"/>
  
  <path d="M0 120 Q 150 180 300 120" stroke="rgba(255,255,255,0.05)" stroke-width="20" fill="none"/>
  <path d="M0 60 Q 150 0 300 60" stroke="rgba(255,255,255,0.05)" stroke-width="20" fill="none"/>

  <g transform="translate(220, 130)">
    <circle cx="0" cy="10" r="14" fill="#ff5f00" opacity="0.9"/>
    <circle cx="18" cy="10" r="14" fill="#eb001b" opacity="0.9"/>
    <circle cx="9" cy="10" r="14" fill="#ff9800" opacity="0.5"/> </g>

  <rect x="30" y="50" width="40" height="30" rx="4" fill="#e0e0e0"/>
  <path d="M30 65 H70 M50 50 V80 M40 50 V80 M60 50 V80" stroke="#aaa" stroke-width="1"/>

  <path d="M250 30 A 10 10 0 0 1 270 30 M245 30 A 15 15 0 0 1 275 30 M240 30 A 20 20 0 0 1 280 30" stroke="white" stroke-width="2" fill="none" opacity="0.7"/>

  <text x="280" y="25" font-family="Arial, sans-serif" font-size="10" fill="white" text-anchor="end" letter-spacing="2" opacity="0.8">NUBANK</text>

  <text x="30" y="110" font-family="Courier New, monospace" font-size="19" fill="white" letter-spacing="2" font-weight="bold">
    5502 4891 0042 9981
  </text>

  <text x="30" y="135" font-family="Arial, sans-serif" font-size="7" fill="#ccc">MEMBER SINCE</text>
  <text x="30" y="145" font-family="Arial, sans-serif" font-size="9" fill="white">06/21</text>

  <text x="120" y="135" font-family="Arial, sans-serif" font-size="7" fill="#ccc">VALID THRU</text>
  <text x="120" y="145" font-family="Arial, sans-serif" font-size="9" fill="white">12/29</text>

  <text x="30" y="165" font-family="Courier New, monospace" font-size="14" fill="white" letter-spacing="1">MÁRCIO MARQUES</text>
</svg>
